# xmcd
#
# Track frame offsets: 
#        150
#        23588
#        43712
#        61233
#        77723
#        95541
#        111239
#        128867
#        146832
#        162660
#        176348
#
# Disc length: 2638 seconds
#
# Revision: 1
# Processed by: cddbd v1.5.2PL0 Copyright (c) Steve Scherf et al.
# Submitted via: ExactAudioCopy v1.0b2
#
DISCID=920a4c0b
DTITLE=Scotty - Blue Oldies 98
DYEAR=1998
DGENRE=Blues
TTITLE0=Time to remember
TTITLE1=La Mer
TTITLE2=Antonio's Song
TTITLE3=Michelle
TTITLE4=Lady Want to  know
TTITLE5=La vie an rose
TTITLE6=Moon River
TTITLE7=Night and day
TTITLE8=Love me tender
TTITLE9=Unforetgetable
TTITLE10=Green eyes
EXTD=
EXTT0=
EXTT1=
EXTT2=
EXTT3=
EXTT4=
EXTT5=
EXTT6=
EXTT7=
EXTT8=
EXTT9=
EXTT10=
PLAYORDER=
